<?xml version="1.0" encoding="utf-8"?>
<!-- Generator: Adobe Illustrator 18.1.1, SVG Export Plug-In . SVG Version: 6.00 Build 0)  -->
<svg version="1.1" id="Layer_2" xmlns="http://www.w3.org/2000/svg" xmlns:xlink="http://www.w3.org/1999/xlink" x="0px" y="0px"
	 viewBox="0 0 216 162" enable-background="new 0 0 216 162" xml:space="preserve">
<path fill="none" stroke="#000000" stroke-miterlimit="10" d="M132,134.5H70.3V98.1c0-1.1,0.9-1.9,1.9-1.9h57.3
	c1.3,0,2.4,1.1,2.4,2.4V134.5z"/>
<path fill="none" stroke="#000000" stroke-miterlimit="10" d="M94.9,128.6H81.2c-0.4,0-0.8-0.4-0.8-0.8V99.6c0-0.4,0.4-0.8,0.8-0.8
	h13.8c0.4,0,0.8,0.4,0.8,0.8v28.3C95.8,128.3,95.4,128.6,94.9,128.6z"/>
<path fill="none" stroke="#000000" stroke-miterlimit="10" d="M149,87.3H56.8c-1.5,0-2.8-1.2-2.8-2.8V16.6h97.7v67.9
	C151.8,86.1,150.5,87.3,149,87.3z"/>
<g>
	<rect x="46.1" y="23.8" width="5.3" height="5.3"/>
</g>
<rect x="154.2" y="23.8" width="5.3" height="5.3"/>
<polygon points="153,118.1 155.7,118.1 155.7,121.5 156.9,121.5 154.3,127.2 151.8,121.5 153,121.5 "/>
<line stroke="#000000" stroke-miterlimit="10" x1="60.6" y1="29.5" x2="145.1" y2="29.5"/>
<path fill="none" stroke="#000000" stroke-miterlimit="10" d="M147.5,134h-1v-1.2h-3.7v1.2H132v0.5H70.3V98c0-1,0.8-1.8,1.8-1.8
	h73.5l0,0c1,0,1.8,0.8,1.8,1.8V134z"/>
<line stroke="#000000" stroke-miterlimit="10" x1="60.6" y1="35.9" x2="145.1" y2="35.9"/>
<line stroke="#000000" stroke-miterlimit="10" x1="60.6" y1="42.3" x2="145.1" y2="42.3"/>
<line stroke="#000000" stroke-miterlimit="10" x1="60.6" y1="48.8" x2="145.1" y2="48.8"/>
<polygon fill="none" stroke="#000000" stroke-miterlimit="10" points="162,134 146.5,134 146.5,132.8 142.8,132.8 142.8,134 
	132,134 132,134.5 70.3,134.5 70.3,132 68.4,132 66.9,134 50.8,134 43.8,125.8 43.8,15.8 54,15.8 54,16.6 151.8,16.6 151.8,15.8 
	162,15.8 "/>
</svg>
